<?xml version="1.0" encoding="utf-8"?>
<svg xmlns="http://www.w3.org/2000/svg" xmlns:xlink="http://www.w3.org/1999/xlink" version="1.1" id="Layer_1" x="0px" y="0px" viewBox="0 0 552 134.7" style="enable-background:new 0 0 552 134.7;" xml:space="preserve">
<style type="text/css">
	.st0{fill:#00F4D6;}
</style>
<g>
	<path class="st0" d="M393.7,46.8h-1.8c-2.2,0-2.5,1.2-2.5,1.9v28.9l-13-29.6c-0.3-0.8-1.1-1.3-2.1-1.3h-4.6c-2.2,0-2.5,1.2-2.5,1.9   v37.6c0,0.7,0.3,1.9,2.5,1.9h1.8c2.2,0,2.5-1.2,2.5-1.9V57.9L386.9,87c0.2,0.6,0.7,1.2,2.1,1.2h4.6c2.2,0,2.5-1.2,2.5-1.9V48.7   C396.2,48,395.9,46.8,393.7,46.8z"/>
	<path class="st0" d="M434.7,46.8h-24c-2.2,0-2.5,1.2-2.5,1.9v37.6c0,0.7,0.3,1.9,2.5,1.9h24c0.7,0,1.9-0.3,1.9-2.5v-1.3   c0-2.2-1.2-2.5-1.9-2.5h-19.6V70.8h15.1c0.7,0,1.9-0.3,1.9-2.5v-1c0-2.2-1.2-2.5-1.9-2.5h-15.1V53.1h19.6c0.7,0,1.9-0.3,1.9-2.5   v-1.3C436.7,47.1,435.5,46.8,434.7,46.8z"/>
	<path class="st0" d="M470.3,46.8h-1.7c-2.3,0-2.6,1.3-2.6,1.9v28.5v4.7h-14.7v-4.7V48.7c0-0.6-0.2-1.9-2.6-1.9h-1.7   c-2.3,0-2.6,1.3-2.6,1.9v29.5c0,8.7,5.4,10.8,14.2,10.8c8.8,0,14.2-2.1,14.2-10.8V48.7C472.9,48.1,472.7,46.8,470.3,46.8z"/>
	<path class="st0" d="M535,46.2c-8.7,0-14.2,2.1-14.2,10.8v3v15.2v3c0,8.7,5.4,10.8,14.2,10.8c8.8,0,14.2-2.1,14.2-10.8v-3V60v-3   C549.2,48.3,543.8,46.2,535,46.2z M542.4,77.2v4.7h-14.7v-4.7v-2V60v-2v-5h14.7v5v2v15.2V77.2z"/>
	<path class="st0" d="M500.1,46.2h-13.7c-2.3,0-2.6,1.3-2.6,1.9v38.1c0,0.6,0.2,1.9,2.6,1.9h1.7c2.3,0,2.6-1.3,2.6-1.9V74.4h8.8   l5.4,11.9c0.5,1.4,1.3,1.9,3.1,1.9h2.4c0.7,0,1.2-0.3,1.5-0.8c0.3-0.5,0.4-1.2,0.1-1.8L506.6,73c4.2-2.2,6.3-5.9,6.3-11.5V59   C512.9,50.3,508.8,46.2,500.1,46.2z M505.2,67.5h-14.5V53.1h14.5V67.5z"/>
	<path class="st0" d="M298.5,46.8h-22.2c-0.7,0-1.9,0.3-1.9,2.5v1.3c0,2.2,1.2,2.5,1.9,2.5h7.7v28.9h-7.7c-0.7,0-1.9,0.3-1.9,2.5   v1.3c0,2.2,1.2,2.5,1.9,2.5h22.2c0.7,0,1.9-0.3,1.9-2.5v-1.3c0-2.2-1.2-2.5-1.9-2.5h-7.7V53.1h7.7c0.5,0,1.9-0.2,1.9-2.5v-1.3   C300.4,47,298.9,46.8,298.5,46.8z"/>
	<path class="st0" d="M253.9,63.4c-3.8-1.4-8.2-2.9-8.2-4.8v-1.4c0-3.1,0-4.2,0-4.2h17.5c1.2,0,2.2-1,2.2-2.2V49   c0-1.2-1-2.2-2.2-2.2h-11c-6.3,0-12.8,0.3-12.8,9.5v1.8c0,7.3,7.9,10.3,14.2,12.8c3.6,1.4,7.9,2.8,7.9,4.5v2.5v4.1h-18.7   c-1.2,0-2.2,1-2.2,2.2V86c0,1.2,1,2.2,2.2,2.2h12.3c8.1,0,12.8-0.8,12.8-10.2v-2.2C267.8,68.7,260.1,65.8,253.9,63.4z"/>
	<path class="st0" d="M321.3,63.4c-3.8-1.4-8.2-2.9-8.2-4.8v-1.4c0-3.1,0-4.2,0-4.2h17.5c1.2,0,2.2-1,2.2-2.2V49   c0-1.2-1-2.2-2.2-2.2h-11c-6.3,0-12.8,0.3-12.8,9.5v1.8c0,7.3,7.9,10.3,14.2,12.8c3.6,1.4,7.9,2.8,7.9,4.5v2.5v4.1h-18.7   c-1.2,0-2.2,1-2.2,2.2V86c0,1.2,1,2.2,2.2,2.2h12.3c8.1,0,12.8-0.8,12.8-10.2v-2.2C335.1,68.7,327.5,65.8,321.3,63.4z"/>
	<path class="st0" d="M189.3,66.5c2.3-1.6,3.5-4.3,3.5-7.8v-0.2c0-8.3-4.1-11.7-12.8-11.7h-12.5c-2.2,0-2.5,1.2-2.5,1.9v37.6   c0,0.7,0.3,1.9,2.5,1.9h13.7c8.7,0,12.8-3.3,12.8-11.7v-0.2C194,71.2,192.6,68.2,189.3,66.5z M171.8,53.1h13.6v10.7h-13.6V53.1z    M186.6,81.9h-14.8V70.1h14.8V81.9z"/>
	<path class="st0" d="M217.4,46.2c-8.7,0-14.2,2.1-14.2,10.8v29.5c0,0.6,0.2,1.9,2.6,1.9h1.7c2.3,0,2.6-1.3,2.6-1.9V75.7h14.7v10.8   c0,0.6,0.2,1.9,2.6,1.9h1.7c2.3,0,2.6-1.3,2.6-1.9V57C231.7,48.3,226.2,46.2,217.4,46.2z M210.1,69.4V58v-4.7h14.7V58v11.4H210.1z"/>
</g>
<g>
	<ellipse transform="matrix(0.866 -0.5 0.5 0.866 -25.1098 41.2792)" class="st0" cx="64.5" cy="67.5" rx="16.8" ry="16.8"/>
	<path class="st0" d="M5.4,93.8c9.1,0,17.9-4.7,22.8-13.2c7.3-12.6,3-28.7-9.6-36c-4.2-2.4-8.7-3.5-13.2-3.5V93.8z"/>
	<path class="st0" d="M100.8,54.3c-7.3,12.6-3,28.7,9.6,36c4.2,2.4,8.7,3.5,13.2,3.5V41.2C114.5,41.2,105.6,45.9,100.8,54.3z"/>
	<path class="st0" d="M94,92.3c-14.6,0-26.3,11.8-26.3,26.3c0,4.8,1.3,9.3,3.5,13.2l45.6-26.3C112.3,97.6,103.8,92.3,94,92.3z"/>
	<path class="st0" d="M12.1,29.5c4.6,7.9,13.1,13.2,22.8,13.2c14.6,0,26.3-11.8,26.3-26.3c0-4.8-1.3-9.3-3.5-13.2L12.1,29.5z"/>
	<path class="st0" d="M71.2,29.5c7.3,12.6,23.4,16.9,36,9.6c4.2-2.4,7.4-5.8,9.6-9.6L71.2,3.1C66.7,11,66.3,21,71.2,29.5z"/>
	<path class="st0" d="M21.8,95.9c-4.2,2.4-7.4,5.8-9.6,9.6l45.6,26.3c4.5-7.9,4.9-17.9,0-26.3C50.5,92.9,34.4,88.6,21.8,95.9z"/>
</g>
</svg>